<?xml version="1.0" encoding="UTF-8"?>
<svg id="Laag_1" xmlns="http://www.w3.org/2000/svg" version="1.1" viewBox="0 0 71 71">
  <!-- Generator: Adobe Illustrator 29.1.0, SVG Export Plug-In . SVG Version: 2.1.0 Build 142)  -->
  <defs>
    <style>
      .st0 {
        fill: #161727;
      }

      .st1 {
        isolation: isolate;
      }

      .st2 {
        fill: #41d0ab;
      }
    </style>
  </defs>
  <g id="Rectangle_2047">
    <path class="st0" d="M10.5.5h50c5.5,0,10,4.5,10,10v50c0,5.5-4.5,10-10,10H10.5c-5.5,0-10-4.5-10-10V10.5C.5,5,5,.5,10.5.5Z"/>
    <path class="st2" d="M60.5,71H10.5c-5.8,0-10.5-4.7-10.5-10.5V10.5C0,4.7,4.7,0,10.5,0h50c5.8,0,10.5,4.7,10.5,10.5v50c0,5.8-4.7,10.5-10.5,10.5ZM10.5,1C5.3,1,1,5.3,1,10.5v50c0,5.2,4.3,9.5,9.5,9.5h50c5.2,0,9.5-4.3,9.5-9.5V10.5c0-5.2-4.3-9.5-9.5-9.5H10.5Z"/>
  </g>
  <g class="st1">
    <path class="st2" d="M31.1,31.2c-.6-4.7-3.2-7.1-6.7-7.1s-6.8,3.2-6.8,9.5,2.7,9.5,6.8,9.5,6.2-2.6,6.7-7.4h4.8c-.7,7.3-5.3,11.4-11.6,11.4s-11.7-4.8-11.7-13.4,4.8-13.4,11.8-13.4,10.9,3.9,11.6,11.1h-4.9v-.2h0Z"/>
    <path class="st2" d="M38.9,41.4c0-4,4.1-5.3,8.4-6.6,3.1-1,4.7-1.7,4.7-3.2s-1.3-2.3-3.6-2.3-4.3,1.5-4.7,4h-4.4c.6-4.3,4.1-7.3,9.2-7.3s8.1,2.4,8.1,6.9v13.7h-4.7v-2.3c-1.5,1.7-3.8,2.6-6.3,2.6-4.1,0-6.7-2.2-6.7-5.5ZM46.8,43.7c1.9,0,3.9-.8,5.1-2.1v-5.6c-.9.7-2.2,1.1-3.7,1.7-2.7.9-4.7,1.6-4.7,3.6s1.3,2.4,3.3,2.4Z"/>
  </g>
</svg>