<svg width="146" height="60" viewBox="0 0 146 60" fill="none" xmlns="http://www.w3.org/2000/svg">
<rect x="69.3313" y="18.75" width="17.0708" height="3.75" fill="black"/>
<rect x="128.48" y="18.75" width="17.0708" height="3.75" fill="black"/>
<rect x="100.927" y="10.05" width="4.04308" height="31.2" fill="black"/>
<rect x="91.9426" y="18.75" width="4.04308" height="22.5" fill="black"/>
<rect width="4.04308" height="4.05" transform="matrix(1 0 0 -1 91.9426 14.1)" fill="black"/>
<rect x="68.882" y="37.5" width="17.9692" height="3.75" fill="black"/>
<path d="M68.882 37.5L81.6118 22.5L86.4021 22.5L73.6723 37.5L68.882 37.5Z" fill="black"/>
<path d="M128.031 37.5L140.761 22.5L145.551 22.5L132.821 37.5L128.031 37.5Z" fill="black"/>
<rect x="109.912" y="10.05" width="4.04308" height="31.2" fill="black"/>
<rect x="128.031" y="37.5" width="17.9692" height="3.75" fill="black"/>
<rect x="118.896" y="18.75" width="4.04308" height="22.5" fill="black"/>
<rect width="4.04308" height="4.05" transform="matrix(1 0 0 -1 118.896 14.1)" fill="black"/>
<path d="M28.0769 40.7913V60H31.8205V36.9976L41.7751 54.269C42.9016 53.7171 43.9839 53.0889 45.0155 52.3911L34.1184 33.4845L46.1189 37.8598C46.6604 36.7441 47.0902 35.5639 47.3937 34.3339L40.6494 31.875H59.8974V28.125H36.9342L54.1762 18.1533C53.6253 17.0249 52.9982 15.9407 52.3015 14.9074L33.5391 25.7584L37.87 13.8389C36.7586 13.2912 35.5824 12.8552 34.3561 12.5455L31.8205 19.524V0H28.0769V23.0024L18.1223 5.73092C16.9958 6.28276 15.9135 6.91098 14.8819 7.60884L25.7337 26.4368L13.8043 22.0874C13.2591 23.2015 12.8255 24.3803 12.518 25.6091L19.4184 28.125H0V31.875H22.963L5.72115 41.8466C6.27205 42.975 6.89919 44.0592 7.59586 45.0925L26.5034 34.1575L22.1246 46.2088C23.2392 46.7496 24.4179 47.1785 25.6463 47.4808L28.0769 40.7913Z" fill="url(#paint0_linear_1380_4043)"/>
<defs>
<linearGradient id="paint0_linear_1380_4043" x1="12.7282" y1="6.375" x2="43.802" y2="56.6525" gradientUnits="userSpaceOnUse">
<stop stop-color="#9D41FF"/>
<stop offset="0.468794" stop-color="#2858FF"/>
<stop offset="0.770884" stop-color="#29B8FF"/>
<stop offset="1" stop-color="#00F0FF"/>
</linearGradient>
</defs>
</svg>
